<svg xmlns="http://www.w3.org/2000/svg" viewBox="0 0 641 74" height="16">
  <g fill="#eeeff0">
    <path d="M175.968 7.632v64.242h-.258L130.044 25.52l.172 44.29h-8.428V5.74h.43l45.58 46.87-.172-44.978h8.342zM191.319 42.075c1.69-2.895 4.042-5.173 7.052-6.837 3.01-1.663 6.407-2.494 10.191-2.494 3.784 0 7.151.832 10.105 2.494 2.952 1.664 5.246 3.928 6.88 6.794 1.633 2.867 2.452 6.078 2.452 9.632 0 3.556-.818 6.781-2.452 9.675-1.634 2.896-3.942 5.175-6.923 6.837-2.982 1.662-6.394 2.494-10.234 2.494-3.728 0-7.082-.789-10.062-2.365-2.982-1.576-5.318-3.797-7.009-6.665-1.692-2.866-2.537-6.192-2.537-9.976 0-3.497.845-6.693 2.537-9.589zm7.052 15.867c1.002 1.892 2.378 3.384 4.128 4.472 1.749 1.09 3.683 1.634 5.805 1.634 3.324 0 6.076-1.174 8.256-3.526 2.178-2.35 3.268-5.274 3.268-8.772 0-3.497-1.09-6.435-3.268-8.815-2.18-2.378-4.932-3.569-8.256-3.569-2.18 0-4.128.559-5.848 1.677-1.72 1.118-3.083 2.623-4.085 4.515-1.004 1.892-1.505 3.956-1.505 6.192s.501 4.3 1.505 6.192zM250.401 37.474c1.69-1.49 3.482-2.637 5.375-3.44 1.892-.802 3.554-1.232 4.988-1.29l-.344 7.998c-2.581-.114-4.917.402-7.009 1.548-2.094 1.147-3.728 2.739-4.902 4.773-1.176 2.036-1.763 4.201-1.763 6.493V69.81h-7.998V34.206h7.138l.603 8.428c.915-1.948 2.219-3.668 3.912-5.16zM279.08 3.16v66.65h-7.998V3.16h7.998zM329.563 34.206V69.81h-7.998v-5.848c-1.262 1.664-3.096 3.197-5.504 4.601s-5.133 2.107-8.17 2.107c-3.385 0-6.438-.731-9.16-2.193s-4.873-3.597-6.449-6.407c-1.578-2.808-2.365-6.162-2.365-10.062 0-3.898.816-7.295 2.451-10.191 1.635-2.894 3.84-5.13 6.623-6.708 2.779-1.576 5.861-2.365 9.244-2.365 3.039 0 5.676.66 7.912 1.978 2.236 1.319 4.041 3.04 5.418 5.16l.602-5.676h7.396zm-11.999 27.391c2.094-1.634 3.426-3.855 4-6.665V47.88c-.688-2.522-2.121-4.571-4.301-6.149-2.18-1.576-4.672-2.365-7.48-2.365-2.123 0-4.086.516-5.893 1.548-1.805 1.032-3.238 2.48-4.299 4.343-1.063 1.864-1.592 3.971-1.592 6.321 0 2.294.545 4.386 1.635 6.278 1.088 1.892 2.551 3.397 4.385 4.515 1.836 1.118 3.842 1.677 6.021 1.677 2.925 0 5.433-.817 7.524-2.451zM373.852 35.797c2.178 1.978 3.297 4.545 3.354 7.697V69.81h-8.084V46.246c-.115-2.006-.717-3.583-1.805-4.73-1.09-1.146-2.725-1.748-4.902-1.806-3.154 0-5.762 1.262-7.826 3.784-2.064 2.523-3.096 5.734-3.096 9.632V69.81h-7.998V34.206h7.225l.516 6.88c1.26-2.58 3.152-4.601 5.676-6.063 2.521-1.462 5.418-2.193 8.686-2.193 3.322 0 6.074.989 8.254 2.967zM428.203 3.16v66.65h-8.084v-5.59c-1.721 2.007-3.828 3.583-6.322 4.73-2.494 1.146-5.232 1.72-8.213 1.72-3.326 0-6.336-.803-9.029-2.408-2.695-1.604-4.803-3.855-6.32-6.751-1.521-2.895-2.279-6.235-2.279-10.019 0-3.84.801-7.181 2.408-10.019 1.604-2.838 3.811-5.001 6.621-6.493 2.809-1.49 5.99-2.236 9.547-2.236 2.693 0 5.289.559 7.781 1.677 2.494 1.118 4.459 2.653 5.893 4.601V3.16h7.997zm-12.256 58.136c2.15-1.662 3.539-3.898 4.172-6.708V47.88c-.689-2.58-2.15-4.687-4.387-6.321s-4.787-2.451-7.654-2.451c-2.18 0-4.186.531-6.02 1.591-1.836 1.062-3.297 2.523-4.387 4.386-1.09 1.864-1.633 3.971-1.633 6.321 0 2.293.543 4.386 1.633 6.278s2.551 3.383 4.387 4.472c1.834 1.089 3.84 1.634 6.02 1.634 3.096 0 5.719-.831 7.869-2.494zM503.752 12.706c3.813 3.384 5.719 8.114 5.719 14.19 0 3.498-.703 6.766-2.105 9.804-1.406 3.04-3.67 5.504-6.795 7.396s-7.066 2.838-11.824 2.838h-9.203V69.81h-8.342V7.632h16.684c6.764 0 12.053 1.692 15.866 5.074zm-7.74 24.252c1.863-1.26 3.195-2.795 4-4.601.803-1.806 1.203-3.569 1.203-5.289 0-2.98-.975-5.633-2.924-7.955-1.949-2.322-4.988-3.483-9.115-3.483h-9.633v23.22h9.203c2.981 0 5.402-.63 7.266-1.892zM556.941 34.206V69.81h-7.998v-5.848c-1.262 1.664-3.096 3.197-5.504 4.601-2.406 1.404-5.131 2.107-8.17 2.107-3.383 0-6.436-.731-9.158-2.193-2.725-1.462-4.873-3.597-6.449-6.407-1.578-2.808-2.365-6.162-2.365-10.062 0-3.898.816-7.295 2.451-10.191 1.633-2.894 3.84-5.13 6.621-6.708 2.781-1.576 5.861-2.365 9.246-2.365 3.037 0 5.676.66 7.91 1.978 2.236 1.319 4.043 3.04 5.418 5.16l.604-5.676h7.394zm-11.996 27.391c2.092-1.634 3.426-3.855 3.998-6.665V47.88c-.688-2.522-2.121-4.571-4.299-6.149-2.18-1.576-4.674-2.365-7.482-2.365-2.121 0-4.084.516-5.891 1.548s-3.24 2.48-4.301 4.343c-1.061 1.864-1.59 3.971-1.59 6.321 0 2.294.543 4.386 1.633 6.278s2.551 3.397 4.387 4.515c1.834 1.118 3.84 1.677 6.02 1.677 2.924 0 5.432-.817 7.525-2.451zM582.527 37.474c1.689-1.49 3.482-2.637 5.375-3.44 1.891-.802 3.553-1.232 4.988-1.29l-.346 7.998c-2.58-.114-4.916.402-7.008 1.548-2.094 1.147-3.729 2.739-4.902 4.773-1.176 2.036-1.764 4.201-1.764 6.493V69.81h-7.998V34.206h7.139l.602 8.428c.916-1.948 2.221-3.668 3.914-5.16zM615.852 52.696l-4.645 3.784v13.33h-7.998V3.16h7.998v44.978l18.404-14.792 4.9 4.3-13.156 10.578 14.877 21.586h-9.373l-11.007-17.114z"/>
  </g>
  <path fill="#dd2e44" d="M5 9.2032185h91.390343v9.4994974H5z"/>
  <path fill="#5f7aff" d="M5 34.85186h91.390343v9.4994974H5z"/>
  <path fill="#eb8e00" d="M5 60.500504h91.390343v9.4994974H5z"/>
</svg>
