<svg xmlns="http://www.w3.org/2000/svg" viewBox="0 0 460 88">
  <path d="M139.24805 53.049805h22.58789q-5.58106-15.776368-11.25-31.245118-5.71289 15.688477-11.33789 31.245118zM121.3623 77l24.82911-63.984375h8.96484L180.11719 77h-9.18457l-6.5918-17.094727h-27.37793L130.50293 77zm68.02735 0V42.986328q0-1.494141-.17578-4.262695-.13184-2.768555-.26367-4.790039l-.13184-2.021485h8.56934l.0879 7.03125q4.08691-8.085937 12.04101-8.085937 2.50488 0 4.57031.527344l-.0439 7.163086q-2.59277-.703125-4.96582-.703125-5.18555 0-8.34961 3.64746-3.16406 3.603516-3.16406 10.41504V77zm54.88769.966797q-10.45898 0-16.74316-6.503906-6.24023-6.547852-6.24023-16.743164 0-10.678711 6.37207-17.314454 6.37207-6.635742 16.7871-6.635742 9.44825 0 14.89747 5.361328l-2.85645 5.361328q-4.70215-4.086914-11.46973-4.086914-6.89941 0-11.16211 4.526368-4.21875 4.482421-4.21875 12.74414 0 7.646485 4.08692 12.172852Q237.86133 71.375 244.89258 71.375q6.81152 0 12.30469-4.21875l2.54882 5.844727q-6.41601 4.96582-15.46875 4.96582zM290.63965 71.375q6.72363 0 10.23926-4.658203 3.55957-4.702149 3.55957-12.612305 0-7.470703-3.60352-12.084961-3.60351-4.658203-10.2832-4.658203-7.03125 0-10.72266 4.658203-3.64746 4.658203-3.64746 12.216797 0 7.602539 3.69141 12.392578 3.6914 4.746094 10.7666 4.746094zm-1.14258 6.591797q-5.05371 0-9.18457-1.889649-4.08691-1.889648-6.76758-5.097656-2.63672-3.251953-4.08691-7.470703-1.40625-4.262695-1.40625-9.052734 0-6.591797 2.54883-11.90918 2.59277-5.361328 7.51464-8.569336 4.92188-3.208008 11.38184-3.208008 4.79004 0 8.70117 2.329102 3.95508 2.329101 5.97656 5.976562v-7.163086h7.99805V77h-8.08594v-7.69043q-1.93359 4.042969-5.75683 6.372071-3.82324 2.285156-8.83301 2.285156zm56.25-6.591797q6.63574 0 10.23926-4.702148 3.60351-4.702149 3.60351-12.612305 0-7.426758-3.64746-12.041016-3.64746-4.658203-10.06347-4.658203-6.41602 0-9.97559 4.702149-3.55957 4.658203-3.55957 12.348632 0 7.646485 3.47168 12.304688t9.93164 4.658203zm-1.18652 6.591797q-9.05274 0-14.85352-6.37207-5.75683-6.416016-5.75683-17.006836 0-6.94336 2.46093-12.260743 2.46094-5.361328 7.25098-8.4375Q338.49609 30.769531 345 30.769531q5.18555 0 9.05273 2.329102 3.86719 2.329101 5.36133 5.581054V11.697266h8.12989v53.613281q.04394 4.042969.30761 11.689453h-8.21777l-.17578-7.646484q-1.36231 3.515625-5.27344 6.064453-3.86719 2.548828-9.62402 2.548828zm38.10058-57.436524v-7.514648h7.99805v7.514648zM382.61719 77V31.912109h8.04199V77zm42.31933-5.625q6.72364 0 10.23926-4.658203 3.55957-4.702149 3.55957-12.612305 0-7.470703-3.60351-12.084961-3.60352-4.658203-10.28321-4.658203-7.03125 0-10.72265 4.658203-3.64746 4.658203-3.64746 12.216797 0 7.602539 3.6914 12.392578 3.69141 4.746094 10.7666 4.746094zm-1.14257 6.591797q-5.05372 0-9.18458-1.889649-4.08691-1.889648-6.76757-5.097656-2.63672-3.251953-4.08692-7.470703-1.40625-4.262695-1.40625-9.052734 0-6.591797 2.54883-11.90918 2.59277-5.361328 7.51465-8.569336 4.92187-3.208008 11.38184-3.208008 4.79003 0 8.70117 2.329102 3.95508 2.329101 5.97656 5.976562v-7.163086h7.99805V77h-8.08594v-7.69043q-1.93359 4.042969-5.75684 6.372071-3.82324 2.285156-8.833 2.285156z" aria-label="Arcadia" font-weight="500" font-size="90" font-family="Muli" fill="#e4e7ea"/>
  <path fill="#1e8cbe" d="M5 13.106138h91.390343v13.2H5zm0 25h91.390343v13.2H5zm0 26h91.390343v13.2H5z"/>
</svg>
